<svg width="63" height="63" viewBox="0 0 63 63" fill="none" xmlns="http://www.w3.org/2000/svg">
<circle cx="31.5" cy="31.5" r="31.5" fill="#FFF7F0"/>
<g clip-path="url(#clip0)">
<path d="M28.5513 23.4756C28.1508 23.4756 27.8262 23.8002 27.8262 24.2007V28.2509L25.1382 30.9389C24.855 31.2221 24.855 31.6812 25.1382 31.9644C25.2797 32.106 25.4653 32.1768 25.6509 32.1768C25.8365 32.1768 26.022 32.106 26.1636 31.9644L29.0638 29.0641C29.2013 28.9268 29.2764 28.7369 29.2764 28.5513V24.2007C29.2764 23.8002 28.9517 23.4756 28.5513 23.4756ZM37.6979 30.8326C37.8834 30.0897 37.9775 29.3258 37.9775 28.5513C37.9775 23.3536 33.7489 19.125 28.5513 19.125C23.3536 19.125 19.125 23.3536 19.125 28.5513C19.125 33.7489 23.3536 37.9775 28.5513 37.9775C29.3258 37.9775 30.0897 37.8834 30.8326 37.6979C31.0145 41.1348 33.8677 43.875 37.3491 43.875C40.9475 43.875 43.875 40.9475 43.875 37.3491C43.875 33.8677 41.1348 31.0145 37.6979 30.8326ZM28.5513 36.5273C24.1533 36.5273 20.5752 32.9493 20.5752 28.5513C20.5752 24.1533 24.1533 20.5752 28.5513 20.5752C32.9493 20.5752 36.5273 24.1533 36.5273 28.5513C36.5273 29.3644 36.4053 30.1635 36.1647 30.9312C33.5141 31.4192 31.4193 33.514 30.9313 36.1646C30.1635 36.4053 29.3644 36.5273 28.5513 36.5273ZM37.3491 42.4248C34.5504 42.4248 32.2734 40.1479 32.2734 37.3491C32.2734 34.5504 34.5504 32.2734 37.3491 32.2734C40.1479 32.2734 42.4248 34.5504 42.4248 37.3491C42.4248 40.1479 40.1479 42.4248 37.3491 42.4248ZM39.3344 35.3635L36.624 38.0738L34.9886 36.4384C34.7055 36.1552 34.2464 36.1552 33.9632 36.4384C33.68 36.7216 33.68 37.1807 33.9632 37.4638L36.1113 39.612C36.2529 39.7535 36.4385 39.8244 36.624 39.8244C36.8096 39.8244 36.9952 39.7535 37.1367 39.612L40.3598 36.3889C40.643 36.1058 40.643 35.6466 40.3598 35.3635C40.0767 35.0803 39.6176 35.0802 39.3344 35.3635Z" fill="url(#paint0_linear)"/>
<path d="M28.5513 23.4756C28.1508 23.4756 27.8262 23.8002 27.8262 24.2007V28.2509L25.1382 30.9389C24.855 31.2221 24.855 31.6812 25.1382 31.9644C25.2797 32.106 25.4653 32.1768 25.6509 32.1768C25.8365 32.1768 26.022 32.106 26.1636 31.9644L29.0638 29.0641C29.2013 28.9268 29.2764 28.7369 29.2764 28.5513V24.2007C29.2764 23.8002 28.9517 23.4756 28.5513 23.4756ZM37.6979 30.8326C37.8834 30.0897 37.9775 29.3258 37.9775 28.5513C37.9775 23.3536 33.7489 19.125 28.5513 19.125C23.3536 19.125 19.125 23.3536 19.125 28.5513C19.125 33.7489 23.3536 37.9775 28.5513 37.9775C29.3258 37.9775 30.0897 37.8834 30.8326 37.6979C31.0145 41.1348 33.8677 43.875 37.3491 43.875C40.9475 43.875 43.875 40.9475 43.875 37.3491C43.875 33.8677 41.1348 31.0145 37.6979 30.8326ZM28.5513 36.5273C24.1533 36.5273 20.5752 32.9493 20.5752 28.5513C20.5752 24.1533 24.1533 20.5752 28.5513 20.5752C32.9493 20.5752 36.5273 24.1533 36.5273 28.5513C36.5273 29.3644 36.4053 30.1635 36.1647 30.9312C33.5141 31.4192 31.4193 33.514 30.9313 36.1646C30.1635 36.4053 29.3644 36.5273 28.5513 36.5273ZM37.3491 42.4248C34.5504 42.4248 32.2734 40.1479 32.2734 37.3491C32.2734 34.5504 34.5504 32.2734 37.3491 32.2734C40.1479 32.2734 42.4248 34.5504 42.4248 37.3491C42.4248 40.1479 40.1479 42.4248 37.3491 42.4248ZM39.3344 35.3635L36.624 38.0738L34.9886 36.4384C34.7055 36.1552 34.2464 36.1552 33.9632 36.4384C33.68 36.7216 33.68 37.1807 33.9632 37.4638L36.1113 39.612C36.2529 39.7535 36.4385 39.8244 36.624 39.8244C36.8096 39.8244 36.9952 39.7535 37.1367 39.612L40.3598 36.3889C40.643 36.1058 40.643 35.6466 40.3598 35.3635C40.0767 35.0803 39.6176 35.0802 39.3344 35.3635Z" fill="url(#paint1_linear)"/>
</g>
<defs>
<linearGradient id="paint0_linear" x1="31.5" y1="43.875" x2="31.5" y2="19.125" gradientUnits="userSpaceOnUse">
<stop stop-color="#A93AFF"/>
<stop offset="1" stop-color="#FF81FF"/>
</linearGradient>
<linearGradient id="paint1_linear" x1="31.5" y1="43.875" x2="31.5" y2="19.125" gradientUnits="userSpaceOnUse">
<stop stop-color="#B58200"/>
<stop offset="1" stop-color="#FFD79C"/>
</linearGradient>
<clipPath id="clip0">
<rect width="24.75" height="24.75" fill="white" transform="translate(19.125 19.125)"/>
</clipPath>
</defs>
</svg>
