<svg width="63" height="63" viewBox="0 0 63 63" fill="none" xmlns="http://www.w3.org/2000/svg">
<circle cx="31.5" cy="31.5" r="31.5" fill="#FFF7F0"/>
<g clip-path="url(#clip0)">
<path d="M44.4814 26.866C43.2879 26.866 42.2683 27.5981 41.8803 28.6211C39.5047 28.4635 37.9021 27.5762 36.3476 26.7154C34.8345 25.8775 33.4054 25.0862 31.5 25.0862C29.5946 25.0862 28.1655 25.8775 26.6524 26.7154C25.0979 27.5762 23.4953 28.4636 21.1197 28.6211C20.7317 27.5981 19.7121 26.866 18.5186 26.866C16.992 26.866 15.75 28.0636 15.75 29.5356V31.3154C15.75 31.3158 15.7501 31.3163 15.7501 31.3167C15.7502 31.434 15.776 31.5572 15.8255 31.6677C15.8257 31.6682 15.8259 31.6687 15.8261 31.6693C16.5734 33.3319 18.1402 35.9478 19.9018 38.0965C21.4446 39.9786 23.0856 41.4831 24.7792 42.5684C26.9489 43.9588 29.2101 44.6638 31.5 44.6638C33.7899 44.6638 36.0511 43.9588 38.2208 42.5684C39.9144 41.4831 41.5554 39.9785 43.0982 38.0965C44.8252 35.99 46.4042 33.3818 47.1739 31.6693C47.1762 31.6618 47.2496 31.5148 47.2499 31.3172C47.2499 31.3166 47.2499 31.316 47.2499 31.3154V29.5356C47.25 28.0636 46.008 26.866 44.4814 26.866ZM19.4414 34.3716C18.4373 32.8251 17.8043 31.5585 17.5957 31.1234V29.5356C17.5957 29.045 18.0097 28.6458 18.5186 28.6458C19.0274 28.6458 19.4414 29.045 19.4414 29.5356V34.3716ZM41.7129 36.916C39.169 40.0434 35.6378 42.884 31.5 42.884C27.3616 42.884 23.8301 40.0423 21.2871 36.916V30.3944C24.0586 30.2041 25.9149 29.1762 27.5715 28.2588C28.9212 27.5114 30.0869 26.866 31.5 26.866C32.9131 26.866 34.0788 27.5114 35.4285 28.2588C37.0852 29.1762 38.9415 30.2041 41.7129 30.3944V36.916ZM45.4043 31.1234C45.1957 31.5585 44.5627 32.8251 43.5586 34.3716V29.5356C43.5586 29.045 43.9726 28.6458 44.4814 28.6458C44.9903 28.6458 45.4043 29.045 45.4043 29.5356V31.1234ZM33.3457 33.9851H32.4228V33.0952C32.4228 32.6038 32.0097 32.2053 31.5 32.2053C30.9903 32.2053 30.5771 32.6038 30.5771 33.0952V33.9851H29.6543C29.1446 33.9851 28.7314 34.3835 28.7314 34.875C28.7314 35.3665 29.1446 35.7649 29.6543 35.7649H30.5771V36.6548C30.5771 37.1462 30.9903 37.5447 31.5 37.5447C32.0097 37.5447 32.4228 37.1462 32.4228 36.6548V35.7649H33.3457C33.8554 35.7649 34.2686 35.3665 34.2686 34.875C34.2686 34.3835 33.8554 33.9851 33.3457 33.9851Z" fill="url(#paint0_linear)"/>
</g>
<defs>
<linearGradient id="paint0_linear" x1="31.5" y1="44.6638" x2="31.5" y2="25.0862" gradientUnits="userSpaceOnUse">
<stop stop-color="#B58200"/>
<stop offset="1" stop-color="#FFD79C"/>
</linearGradient>
<clipPath id="clip0">
<rect width="31.5" height="30.375" fill="white" transform="translate(15.75 19.6875)"/>
</clipPath>
</defs>
</svg>
