<svg width="63" height="63" viewBox="0 0 63 63" fill="none" xmlns="http://www.w3.org/2000/svg">
<circle cx="31.5" cy="31.5" r="31.5" fill="#FFF7F0"/>
<g clip-path="url(#clip0)">
<path d="M42.6204 31.6824H32.2612C32.4645 30.6207 33.1226 29.6536 34.0188 28.6562C34.738 29.183 35.5792 29.4583 36.4267 29.4583C37.4906 29.4583 38.5539 29.0438 39.3636 28.2148C40.0233 27.5401 40.71 26.2031 41.2676 21.0351C41.2906 20.8213 41.2176 20.6089 41.0689 20.4566C40.9209 20.3051 40.7114 20.2338 40.5038 20.2531C35.4561 20.8241 34.1496 21.5271 33.4906 22.2026C32.0431 23.6846 31.8997 25.9929 33.041 27.6508C32.4244 28.3328 31.8852 29.0175 31.4953 29.7455C31.1054 29.023 30.5683 28.3399 29.9542 27.6582C31.1002 25.9995 30.9589 23.6878 29.5095 22.2033C28.8504 21.5286 27.5446 20.8248 22.4962 20.2539C22.2866 20.2324 22.0791 20.3058 21.9311 20.4573C21.7824 20.6096 21.7094 20.822 21.7324 21.0358C22.2899 26.2037 22.9767 27.5414 23.6364 28.2161C24.4461 29.0452 25.5094 29.4597 26.5726 29.4597C27.419 29.4597 28.2589 29.1857 28.9772 28.661C29.8917 29.6764 30.5409 30.6297 30.7407 31.6824H20.3796C19.9971 31.6824 19.6875 31.9993 19.6875 32.391C19.6875 34.5435 20.2486 36.5614 21.2187 38.312C21.2427 38.376 21.2806 38.4301 21.3207 38.4837C23.3685 42.0395 27.1844 44.4375 31.5 44.4375C35.8156 44.4375 39.6315 42.0395 41.6793 38.4837C41.7194 38.4301 41.7573 38.3761 41.7813 38.312C42.7514 36.5614 43.3125 34.5435 43.3125 32.391C43.3125 31.9993 43.0029 31.6824 42.6204 31.6824ZM34.4693 23.2046C35.0398 22.6205 36.7836 22.1486 39.7902 21.7659C39.4184 24.8066 38.9466 26.6377 38.3849 27.2127C37.4658 28.1526 36.061 28.2846 34.996 27.6249C35.614 27.0038 36.2508 26.3909 36.9162 25.7096C37.1865 25.4329 37.1865 24.9844 36.9162 24.7076C36.6458 24.4308 36.2078 24.4308 35.9374 24.7076C35.3059 25.3542 34.8918 25.7462 34.0335 26.6094C33.4304 25.5274 33.5684 24.1269 34.4693 23.2046ZM28.9641 26.615C28.1411 25.7835 27.7346 25.3958 27.0626 24.709C26.7923 24.4322 26.3542 24.4322 26.0839 24.709C25.8135 24.9858 25.8135 25.4343 26.0839 25.7111C26.8024 26.4467 27.3251 26.9483 27.9998 27.6285C26.9354 28.2853 25.5331 28.1527 24.6151 27.2141C24.0447 26.63 23.5837 24.8446 23.2099 21.7666C26.1805 22.1472 27.969 22.6302 28.5307 23.2053C29.4323 24.1289 29.5696 25.5323 28.9641 26.615ZM21.1068 33.0996H25.2425C25.2863 34.6153 25.4652 36.0474 25.7627 37.3513H22.2785C21.6134 36.0671 21.2059 34.6266 21.1068 33.0996ZM23.1678 38.7686H26.1494C26.6046 40.2024 27.2066 41.4341 27.9252 42.3747C26.0158 41.6649 24.3696 40.4011 23.1678 38.7686ZM30.8079 42.8933C29.5415 42.4748 28.3733 40.9392 27.6151 38.7686H30.8079V42.8933ZM30.8079 37.3513H27.1907C26.8709 36.0606 26.6741 34.6173 26.6259 33.0996H30.8079V37.3513ZM32.1921 33.0996H36.3741C36.3259 34.6173 36.129 36.0606 35.8093 37.3513H32.1921V33.0996ZM32.1921 42.8933V38.7686H35.3849C34.6267 40.9392 33.4585 42.4748 32.1921 42.8933ZM35.0748 42.3747C35.7934 41.4341 36.3954 40.2024 36.8506 38.7686H39.8322C38.6304 40.4011 36.9842 41.6649 35.0748 42.3747ZM40.7215 37.3513H37.2373C37.5348 36.0474 37.7137 34.6153 37.7575 33.0996H41.8932C41.7941 34.6266 41.3866 36.0671 40.7215 37.3513Z" fill="url(#paint0_linear)"/>
</g>
<defs>
<linearGradient id="paint0_linear" x1="31.5" y1="44.4375" x2="31.5" y2="20.25" gradientUnits="userSpaceOnUse">
<stop stop-color="#B58200"/>
<stop offset="1" stop-color="#FFD79C"/>
</linearGradient>
<clipPath id="clip0">
<rect width="23.625" height="24.1875" fill="white" transform="translate(19.6875 20.25)"/>
</clipPath>
</defs>
</svg>
