<svg width="34" height="34" viewBox="0 0 34 34" fill="none" xmlns="http://www.w3.org/2000/svg">
<g clip-path="url(#clip0)">
<path d="M17.3293 4.70093H17.5152C19.2324 4.70719 27.9329 4.76986 30.2789 5.40073C30.988 5.59327 31.6343 5.96856 32.153 6.48911C32.6717 7.00965 33.0447 7.65721 33.2347 8.36708C33.4457 9.16089 33.5941 10.2116 33.6943 11.2958L33.7152 11.5131L33.7612 12.0562L33.7779 12.2735C33.9137 14.1828 33.9304 15.9709 33.9325 16.3616V16.5182C33.9304 16.9235 33.9116 18.8328 33.7612 20.8215L33.7445 21.0409L33.7257 21.2581C33.6212 22.453 33.4666 23.6396 33.2347 24.5128C33.0453 25.2229 32.6725 25.8708 32.1537 26.3914C31.6349 26.912 30.9883 27.2871 30.2789 27.4791C27.8556 28.1309 18.6454 28.1768 17.369 28.1789H17.0724C16.4269 28.1789 13.7572 28.1664 10.9579 28.0703L10.6028 28.0577L10.4211 28.0494L10.0639 28.0348L9.70665 28.0201C7.38789 27.9178 5.17984 27.7528 4.16251 27.477C3.45328 27.2852 2.8069 26.9104 2.28813 26.3902C1.76935 25.87 1.39639 25.2225 1.20661 24.5128C0.974738 23.6416 0.820154 22.453 0.715706 21.2581L0.698994 21.0388L0.682282 20.8215C0.579186 19.406 0.522058 17.9876 0.510986 16.5684L0.510986 16.3135C0.515164 15.8644 0.531876 14.3123 0.644681 12.5993L0.659303 12.3842L0.66557 12.2755L0.682282 12.0583L0.72824 11.5152L0.749129 11.2979C0.8494 10.2137 0.997717 9.16089 1.2087 8.36917C1.39816 7.65901 1.77098 7.01115 2.28977 6.49051C2.80857 5.96988 3.45512 5.59478 4.1646 5.40282C5.18193 5.13126 7.38997 4.96414 9.70873 4.85969L10.0639 4.84507L10.4232 4.83253L10.6028 4.82627L10.96 4.81164C12.9481 4.74697 14.937 4.71076 16.9261 4.70302H17.3293V4.70093ZM13.8804 11.4065V21.4712L22.5643 16.441L13.8804 11.4065Z" fill="#B58200"/>
</g>
<defs>
<clipPath id="clip0">
<rect width="33.4236" height="33.4236" fill="white" transform="translate(0.510986 0.525146)"/>
</clipPath>
</defs>
</svg>
