<svg width="28" height="28" viewBox="0 0 28 28" fill="none" xmlns="http://www.w3.org/2000/svg">
<path d="M13.9227 9.39905C11.3656 9.39905 9.27869 11.4859 9.27869 14.0432C9.27869 16.6004 11.3656 18.6873 13.9227 18.6873C16.4799 18.6873 18.5668 16.6004 18.5668 14.0432C18.5668 11.4859 16.4799 9.39905 13.9227 9.39905ZM27.8514 14.0432C27.8514 12.12 27.8688 10.2143 27.7608 8.29463C27.6528 6.06488 27.1442 4.08598 25.5137 2.45548C23.8798 0.821498 21.9044 0.316322 19.6747 0.208319C17.7516 0.100316 15.8459 0.117736 13.9262 0.117736C12.0031 0.117736 10.0974 0.100316 8.17778 0.208319C5.94807 0.316322 3.96921 0.824982 2.33874 2.45548C0.704786 4.08947 0.199619 6.06488 0.0916179 8.29463C-0.0163833 10.2178 0.00103627 12.1235 0.00103627 14.0432C0.00103627 15.9629 -0.0163833 17.8721 0.0916179 19.7917C0.199619 22.0215 0.70827 24.0004 2.33874 25.6309C3.9727 27.2649 5.94807 27.7701 8.17778 27.8781C10.1009 27.9861 12.0066 27.9686 13.9262 27.9686C15.8493 27.9686 17.755 27.9861 19.6747 27.8781C21.9044 27.7701 23.8832 27.2614 25.5137 25.6309C27.1477 23.9969 27.6528 22.0215 27.7608 19.7917C27.8723 17.8721 27.8514 15.9663 27.8514 14.0432ZM13.9227 21.1888C9.96851 21.1888 6.77724 17.9975 6.77724 14.0432C6.77724 10.0889 9.96851 6.89755 13.9227 6.89755C17.877 6.89755 21.0682 10.0889 21.0682 14.0432C21.0682 17.9975 17.877 21.1888 13.9227 21.1888ZM21.3609 8.27372C20.4377 8.27372 19.6921 7.52815 19.6921 6.6049C19.6921 5.68164 20.4377 4.93607 21.3609 4.93607C22.2841 4.93607 23.0297 5.68164 23.0297 6.6049C23.03 6.82413 22.987 7.04126 22.9032 7.24386C22.8195 7.44645 22.6965 7.63053 22.5415 7.78555C22.3865 7.94057 22.2024 8.06348 21.9998 8.14725C21.7973 8.23102 21.5801 8.274 21.3609 8.27372Z" fill="#B58200"/>
</svg>
