<svg width="29" height="28" viewBox="0 0 29 28" fill="none" xmlns="http://www.w3.org/2000/svg">
<g clip-path="url(#clip0)">
<path d="M5.34116 0.116699C2.52386 0.116699 0.255371 2.38518 0.255371 5.20249V22.8839C0.255371 25.7012 2.52386 27.9697 5.34116 27.9697H14.9243V17.0809H12.045V13.1606H14.9243V9.81129C14.9243 7.17988 16.6256 4.7638 20.5445 4.7638C22.1313 4.7638 23.3046 4.91613 23.3046 4.91613L23.2123 8.57707C23.2123 8.57707 22.0157 8.56576 20.7099 8.56576C19.2967 8.56576 19.0701 9.21691 19.0701 10.2979V13.1606H23.3246L23.1392 17.0809H19.0701V27.9697H23.0226C25.8399 27.9697 28.1083 25.7012 28.1083 22.8839V5.20251C28.1083 2.38521 25.8399 0.116727 23.0226 0.116727H5.34113L5.34116 0.116699Z" fill="#B58200"/>
</g>
<defs>
<clipPath id="clip0">
<rect width="27.853" height="27.853" fill="white" transform="translate(0.255371 0.116699)"/>
</clipPath>
</defs>
</svg>
