<svg width="778" height="270" viewBox="0 0 778 270" fill="none" xmlns="http://www.w3.org/2000/svg">
<path d="M379.72 156.769C380.768 152.819 382.017 148.467 383.468 143.711C385 138.955 386.773 133.313 388.788 126.784C390.884 120.255 393.262 112.476 395.922 103.448C398.662 94.4203 401.806 83.7803 405.353 71.5282C405.514 71.2058 405.675 70.5609 405.836 69.5936C406.078 68.5458 406.199 67.5785 406.199 66.6918C406.199 65.8858 406.078 65.2812 405.836 64.8782C405.595 64.4751 405.151 64.2736 404.506 64.2736C402.652 64.2736 400.879 64.9991 399.186 66.45C397.494 67.9009 396.002 69.7145 394.713 71.8909C393.504 74.0673 392.536 76.3645 391.811 78.7827C391.166 81.1203 390.844 83.2161 390.844 85.07C390.844 86.8433 391.085 88.4152 391.569 89.7855C388.667 89.7855 386.612 89.1003 385.403 87.73C384.194 86.3597 383.589 84.667 383.589 82.6518C383.589 79.9112 384.395 77.1706 386.007 74.43C387.619 71.6088 389.675 69.0697 392.174 66.8127C394.753 64.4751 397.453 62.6212 400.275 61.2509C403.096 59.8806 405.675 59.1955 408.013 59.1955C410.592 59.1955 412.688 60.2433 414.3 62.3391C415.993 64.3542 417.323 67.1755 418.29 70.8027C419.338 74.3494 420.225 78.3797 420.95 82.8936C421.675 87.4076 422.32 92.0827 422.885 96.9191C423.529 101.755 424.094 106.148 424.577 110.098C425.141 114.048 425.625 117.595 426.028 120.738C426.512 123.882 426.915 126.703 427.237 129.202C427.64 131.701 428.003 133.917 428.325 135.852C429.051 132.063 429.938 127.872 430.985 123.277C432.033 118.602 433.162 113.806 434.371 108.889C435.661 103.892 436.95 99.0552 438.24 94.38C439.53 89.6242 440.739 85.2715 441.867 81.3218C443.076 77.2915 444.165 73.8658 445.132 71.0445C446.099 68.2233 446.865 66.2888 447.429 65.2409C447.913 64.1124 448.88 62.8227 450.331 61.3718C451.862 59.9209 453.676 59.1955 455.772 59.1955C454.401 62.8227 452.83 67.3367 451.056 72.7373C449.364 78.0573 447.631 83.8609 445.857 90.1482C444.084 96.3548 442.351 102.723 440.658 109.252C438.965 115.7 437.434 121.988 436.064 128.114C434.774 134.159 433.726 139.681 432.92 144.678C432.195 149.595 431.832 153.625 431.832 156.769C429.172 156.769 426.995 156.044 425.303 154.593C423.61 153.142 422.401 150.522 421.675 146.734C421.272 144.88 420.748 142.22 420.104 138.754C419.539 135.207 418.895 131.217 418.169 126.784C417.444 122.27 416.678 117.595 415.872 112.758C415.066 107.841 414.3 103.085 413.575 98.4909C412.849 93.8158 412.204 89.5839 411.64 85.7955C411.076 81.9264 410.592 78.7827 410.189 76.3645C406.401 90.0676 403.136 101.675 400.395 111.186C397.735 120.617 395.438 128.355 393.504 134.401C391.65 140.366 389.957 144.96 388.425 148.185C386.975 151.409 385.564 153.625 384.194 154.835C382.823 156.124 381.332 156.769 379.72 156.769ZM503.525 152.175C498.608 152.175 494.9 150.724 492.402 147.822C489.983 145.001 488.694 141.575 488.532 137.545C485.066 141.978 481.076 145.404 476.562 147.822C472.129 150.321 467.615 151.57 463.021 151.57C458.023 151.57 454.235 150.2 451.655 147.459C449.076 144.718 447.786 141.373 447.786 137.424C447.786 133.796 448.673 130.008 450.446 126.058C452.3 122.028 454.718 118.239 457.701 114.693C460.764 111.146 464.109 108.285 467.736 106.108C471.444 103.851 475.112 102.723 478.739 102.723C480.673 102.723 482.447 103.247 484.059 104.295C485.752 105.262 486.598 107.277 486.598 110.34C486.598 113.322 485.711 116.184 483.938 118.925C482.165 121.585 479.787 123.962 476.804 126.058C473.822 128.073 470.557 129.766 467.011 131.136C463.545 132.426 460.038 133.232 456.492 133.555C456.33 134.199 456.209 134.844 456.129 135.489C456.129 136.134 456.129 136.779 456.129 137.424C456.129 139.036 456.371 140.608 456.854 142.139C457.419 143.671 458.386 144.96 459.756 146.008C461.126 146.975 463.061 147.459 465.56 147.459C469.832 147.459 474.023 146.008 478.134 143.106C482.326 140.124 485.993 136.456 489.137 132.104C489.862 128.799 491.152 125.534 493.006 122.31C494.86 119.005 497.117 116.023 499.777 113.363C502.437 110.622 505.299 108.446 508.362 106.834C511.505 105.222 514.649 104.415 517.792 104.415C519.808 104.415 521.621 104.899 523.233 105.866C524.926 106.834 525.772 108.889 525.772 112.033C525.772 116.063 524.362 119.65 521.541 122.794C518.8 125.857 515.213 128.315 510.78 130.169C506.427 132.023 501.913 133.192 497.238 133.675C497.077 134.401 496.956 135.086 496.875 135.731C496.875 136.295 496.875 136.9 496.875 137.545C496.875 139.157 497.117 140.769 497.601 142.381C498.084 143.993 498.971 145.323 500.261 146.371C501.631 147.499 503.565 148.064 506.064 148.064C509.53 148.064 512.996 147.056 516.462 145.041C519.929 143.026 523.153 140.366 526.135 137.061C529.198 133.675 531.697 130.088 533.632 126.3L535.324 127.509C533.148 132.345 530.327 136.618 526.861 140.325C523.475 144.033 519.767 146.935 515.737 149.031C511.707 151.127 507.636 152.175 503.525 152.175ZM457.338 130.774C459.514 129.968 461.932 128.879 464.592 127.509C467.333 126.139 469.912 124.527 472.331 122.673C474.829 120.819 476.845 118.804 478.376 116.627C479.988 114.37 480.794 112.033 480.794 109.615C480.794 108.808 480.633 108.204 480.311 107.801C479.988 107.317 479.343 107.075 478.376 107.075C476.522 107.075 474.547 107.801 472.452 109.252C470.356 110.622 468.3 112.476 466.285 114.814C464.351 117.071 462.577 119.61 460.965 122.431C459.353 125.172 458.144 127.952 457.338 130.774ZM498.084 130.774C500.261 130.048 502.598 129.121 505.097 127.993C507.596 126.784 509.974 125.373 512.231 123.761C514.488 122.149 516.342 120.335 517.792 118.32C519.324 116.305 520.09 114.088 520.09 111.67C520.09 110.703 519.888 109.977 519.485 109.494C519.082 108.929 518.397 108.647 517.43 108.647C514.931 108.647 512.392 109.735 509.812 111.912C507.314 114.008 505.016 116.748 502.921 120.134C500.825 123.438 499.213 126.985 498.084 130.774ZM567.71 150.845C565.372 150.845 563.357 150.038 561.665 148.426C559.972 146.895 558.601 144.96 557.554 142.623C556.586 140.285 555.861 137.867 555.377 135.368C554.894 132.869 554.652 130.693 554.652 128.839C555.619 128.758 556.949 128.517 558.642 128.114C560.335 127.63 562.068 126.945 563.841 126.058C565.614 125.091 567.105 123.922 568.315 122.552C569.524 121.101 570.128 119.408 570.128 117.474C570.128 115.862 569.564 114.612 568.435 113.725C567.388 112.758 566.017 112.275 564.325 112.275C561.906 112.275 559.649 113.121 557.554 114.814C555.458 116.426 553.523 118.562 551.75 121.222C550.057 123.882 548.485 126.743 547.035 129.806C545.664 132.789 544.455 135.691 543.407 138.512C542.44 141.252 541.634 143.55 540.989 145.404C540.344 147.177 539.578 148.386 538.692 149.031C537.886 149.676 536.918 149.998 535.79 149.998C534.661 149.998 533.775 149.555 533.13 148.668C532.485 147.862 532.001 146.653 531.679 145.041C531.437 143.429 531.316 141.535 531.316 139.358C531.316 134.925 532.001 129.927 533.372 124.365C534.742 118.723 536.556 112.919 538.813 106.955C541.15 100.99 543.689 95.2264 546.43 89.6645C549.171 84.1027 551.911 79.0648 554.652 74.5509C557.473 70.037 560.052 66.4903 562.39 63.9109C564.808 61.2509 566.783 59.9209 568.315 59.9209C569.524 59.9209 570.491 60.727 571.216 62.3391C572.022 63.8706 572.425 65.8052 572.425 68.1427C572.425 70.8833 571.821 73.9464 570.612 77.3318C569.403 80.7173 567.67 84.143 565.413 87.6091C563.236 91.0751 560.617 94.3397 557.554 97.4027C554.491 100.466 551.186 103.085 547.639 105.262C545.06 111.307 543.125 117.272 541.835 123.156C540.546 128.96 539.861 133.917 539.78 138.028C541.15 134.723 542.722 131.217 544.495 127.509C546.349 123.801 548.405 120.255 550.662 116.869C552.999 113.484 555.498 110.743 558.158 108.647C560.899 106.471 563.76 105.383 566.743 105.383C569.806 105.383 572.425 106.471 574.602 108.647C576.859 110.824 577.987 113.443 577.987 116.506C577.987 119.086 577.302 121.262 575.932 123.035C574.642 124.809 573.03 126.26 571.095 127.388C569.241 128.517 567.347 129.363 565.413 129.927C563.559 130.411 561.987 130.693 560.697 130.774C560.858 131.499 561.141 132.708 561.544 134.401C561.947 136.094 562.511 137.827 563.236 139.6C564.042 141.293 565.01 142.784 566.138 144.074C567.267 145.283 568.637 145.887 570.249 145.887C572.425 145.887 574.561 145.001 576.657 143.227C578.834 141.373 580.889 138.955 582.824 135.973C584.758 132.99 586.531 129.645 588.144 125.937L589.474 127.388C588.265 131.418 586.491 135.207 584.154 138.754C581.816 142.3 579.196 145.202 576.295 147.459C573.473 149.716 570.612 150.845 567.71 150.845ZM550.178 99.2164C553.322 96.637 556.224 93.6142 558.884 90.1482C561.544 86.6015 563.68 83.1355 565.292 79.75C566.904 76.2839 567.71 73.3821 567.71 71.0445C567.71 70.8027 567.71 70.6415 567.71 70.5609C567.71 70.3997 567.629 70.2788 567.468 70.1982C566.662 70.3594 565.292 71.8103 563.357 74.5509C561.503 77.2109 559.408 80.7173 557.07 85.07C554.732 89.4227 552.435 94.1382 550.178 99.2164ZM591.671 151.933C589.091 151.933 586.915 151.086 585.142 149.394C583.288 147.701 582.361 145.122 582.361 141.655C582.361 138.834 583.006 135.771 584.295 132.466C585.585 129.081 587.358 125.776 589.615 122.552C591.872 119.247 594.411 116.265 597.233 113.605C600.134 110.945 603.197 108.808 606.422 107.196C609.646 105.584 612.87 104.778 616.094 104.778C619.319 104.778 622.019 105.625 624.195 107.317C626.452 109.01 627.581 111.267 627.581 114.088C627.581 116.103 626.936 117.514 625.646 118.32C624.437 119.126 622.906 119.489 621.052 119.408C621.213 118.683 621.334 117.957 621.414 117.232C621.576 116.506 621.656 115.781 621.656 115.055C621.656 113.282 621.253 111.751 620.447 110.461C619.641 109.091 618.15 108.405 615.973 108.405C613.717 108.405 611.419 109.212 609.082 110.824C606.744 112.355 604.487 114.411 602.311 116.99C600.215 119.569 598.321 122.391 596.628 125.454C594.935 128.436 593.605 131.378 592.638 134.28C591.671 137.182 591.187 139.802 591.187 142.139C591.187 145.122 592.195 146.613 594.21 146.613C596.064 146.613 598.079 145.726 600.255 143.953C602.512 142.179 604.769 139.963 607.026 137.303C609.364 134.562 611.58 131.741 613.676 128.839C615.772 125.937 617.626 123.358 619.238 121.101C619.48 120.617 619.722 120.375 619.963 120.375C620.367 120.456 620.971 120.617 621.777 120.859C622.583 121.101 623.309 121.464 623.953 121.947C624.598 122.431 624.921 123.035 624.921 123.761C624.921 124.486 624.558 125.494 623.833 126.784C623.188 127.993 622.382 129.403 621.414 131.015C620.528 132.547 619.722 134.119 618.996 135.731C618.351 137.343 618.029 138.834 618.029 140.205C618.029 141.414 618.311 142.582 618.875 143.711C619.52 144.759 620.528 145.283 621.898 145.283C623.994 145.283 626.815 143.751 630.362 140.688C633.908 137.545 637.495 132.708 641.123 126.179L642.694 127.751C640.921 132.104 638.704 135.973 636.044 139.358C633.384 142.663 630.523 145.242 627.46 147.096C624.477 148.95 621.495 149.877 618.513 149.877C615.45 149.877 613.152 148.91 611.621 146.975C610.17 145.122 609.444 143.106 609.444 140.93C609.444 140.527 609.444 140.124 609.444 139.721C609.525 139.318 609.606 138.875 609.686 138.391C606.301 142.824 603.197 146.169 600.376 148.426C597.555 150.764 594.653 151.933 591.671 151.933ZM644.321 150.845C642.709 150.845 641.459 149.515 640.573 146.855C639.767 144.275 639.364 141.293 639.364 137.907C639.364 134.119 639.968 129.565 641.177 124.245C642.467 118.925 644.16 113.363 646.256 107.559C648.432 101.675 650.81 95.9518 653.389 90.39C656.049 84.7476 658.749 79.6291 661.49 75.0345C664.231 70.44 666.81 66.7724 669.228 64.0318C671.727 61.2912 673.903 59.9209 675.757 59.9209C677.289 59.9209 678.377 60.8076 679.022 62.5809C679.747 64.3542 680.11 66.1276 680.11 67.9009C680.11 70.0773 679.586 72.7776 678.538 76.0018C677.571 79.2261 676.201 82.6921 674.427 86.4C672.654 90.0273 670.599 93.6142 668.261 97.1609C665.923 100.627 663.344 103.851 660.523 106.834C657.782 109.735 655.001 112.033 652.18 113.725C651.132 116.224 650.286 118.844 649.641 121.585C648.996 124.325 648.513 126.985 648.19 129.565C647.948 132.063 647.827 134.361 647.827 136.456C647.827 137.182 647.827 137.867 647.827 138.512C647.908 139.076 647.948 139.6 647.948 140.084C648.835 137.746 649.843 135.207 650.971 132.466C652.099 129.726 653.389 127.025 654.84 124.365C656.291 121.705 657.903 119.287 659.676 117.111C661.45 114.935 663.384 113.202 665.48 111.912C667.576 110.542 669.913 109.856 672.493 109.856C674.911 109.856 676.805 110.461 678.176 111.67C679.546 112.798 680.553 114.209 681.198 115.902C681.843 117.595 682.166 119.328 682.166 121.101C682.166 123.68 681.722 126.139 680.836 128.476C680.029 130.733 679.183 132.91 678.296 135.005C677.41 137.101 676.966 139.116 676.966 141.051C676.966 142.663 677.289 143.792 677.934 144.436C678.659 145.081 679.506 145.404 680.473 145.404C682.327 145.404 684.382 144.517 686.639 142.744C688.977 140.97 691.274 138.633 693.531 135.731C695.869 132.748 697.884 129.524 699.576 126.058L701.269 127.751C699.496 131.701 697.36 135.328 694.861 138.633C692.443 141.857 689.783 144.396 686.881 146.25C683.979 148.185 680.876 149.152 677.571 149.152C674.75 149.152 672.573 148.386 671.042 146.855C669.591 145.404 668.866 143.55 668.866 141.293C668.866 139.6 669.188 137.706 669.833 135.61C670.478 133.514 671.082 131.418 671.646 129.323C672.291 127.146 672.614 125.131 672.614 123.277C672.614 121.182 672.17 119.731 671.284 118.925C670.397 118.118 669.309 117.715 668.019 117.715C666.004 117.715 664.19 118.522 662.578 120.134C660.966 121.665 659.515 123.721 658.226 126.3C656.936 128.799 655.686 131.459 654.477 134.28C653.349 137.101 652.22 139.761 651.092 142.26C650.044 144.759 648.956 146.814 647.827 148.426C646.779 150.038 645.611 150.845 644.321 150.845ZM653.994 108.043C656.251 106.269 658.387 104.053 660.402 101.393C662.498 98.6521 664.432 95.7906 666.206 92.8082C667.979 89.8258 669.551 86.9239 670.921 84.1027C672.372 81.2009 673.46 78.5812 674.186 76.2436C674.992 73.9061 675.395 72.173 675.395 71.0445C675.395 70.7221 675.354 70.5206 675.274 70.44C675.274 70.3594 675.233 70.2788 675.153 70.1982C674.589 70.1982 673.46 71.2864 671.767 73.4627C670.075 75.5585 668.14 78.42 665.964 82.0473C663.787 85.5939 661.611 89.6242 659.435 94.1382C657.339 98.6521 655.525 103.287 653.994 108.043Z" fill="#B58200"/>
<path d="M308.646 223.618C306.301 223.618 304.16 223.073 302.226 221.985C300.291 220.873 298.756 219.337 297.619 217.379C296.507 215.396 295.951 213.171 295.951 210.704C295.951 208.238 296.507 206.025 297.619 204.067C298.756 202.084 300.291 200.548 302.226 199.46C304.16 198.348 306.301 197.791 308.646 197.791C311.016 197.791 313.168 198.348 315.103 199.46C317.037 200.548 318.561 202.072 319.673 204.03C320.785 205.989 321.342 208.214 321.342 210.704C321.342 213.195 320.785 215.42 319.673 217.379C318.561 219.337 317.037 220.873 315.103 221.985C313.168 223.073 311.016 223.618 308.646 223.618ZM308.646 220.752C310.411 220.752 311.995 220.341 313.398 219.519C314.825 218.697 315.937 217.524 316.735 216C317.557 214.477 317.968 212.712 317.968 210.704C317.968 208.673 317.557 206.908 316.735 205.409C315.937 203.885 314.837 202.712 313.434 201.89C312.032 201.068 310.436 200.657 308.646 200.657C306.857 200.657 305.261 201.068 303.858 201.89C302.456 202.712 301.343 203.885 300.521 205.409C299.723 206.908 299.324 208.673 299.324 210.704C299.324 212.712 299.723 214.477 300.521 216C301.343 217.524 302.456 218.697 303.858 219.519C305.285 220.341 306.881 220.752 308.646 220.752ZM336.109 203.123C338.528 203.123 340.486 203.861 341.986 205.336C343.485 206.787 344.235 208.891 344.235 211.648V223.364H340.97V212.119C340.97 210.136 340.474 208.625 339.483 207.585C338.491 206.521 337.137 205.989 335.42 205.989C333.679 205.989 332.289 206.533 331.249 207.621C330.233 208.709 329.725 210.293 329.725 212.373V223.364H326.425V203.486H329.725V206.315C330.378 205.3 331.261 204.514 332.373 203.958C333.51 203.402 334.755 203.123 336.109 203.123ZM353.653 196.522V223.364H350.352V196.522H353.653ZM361.709 200.258C361.08 200.258 360.548 200.04 360.113 199.605C359.677 199.17 359.46 198.638 359.46 198.009C359.46 197.38 359.677 196.848 360.113 196.413C360.548 195.978 361.08 195.76 361.709 195.76C362.313 195.76 362.821 195.978 363.232 196.413C363.667 196.848 363.885 197.38 363.885 198.009C363.885 198.638 363.667 199.17 363.232 199.605C362.821 200.04 362.313 200.258 361.709 200.258ZM363.305 203.486V223.364H360.004V203.486H363.305ZM379.341 203.123C381.759 203.123 383.718 203.861 385.217 205.336C386.716 206.787 387.466 208.891 387.466 211.648V223.364H384.201V212.119C384.201 210.136 383.705 208.625 382.714 207.585C381.723 206.521 380.368 205.989 378.651 205.989C376.91 205.989 375.52 206.533 374.48 207.621C373.464 208.709 372.957 210.293 372.957 212.373V223.364H369.656V203.486H372.957V206.315C373.61 205.3 374.492 204.514 375.605 203.958C376.741 203.402 377.986 203.123 379.341 203.123ZM411.719 212.663C411.719 213.292 411.683 213.957 411.611 214.658H395.723C395.844 216.617 396.509 218.152 397.718 219.265C398.951 220.353 400.439 220.897 402.18 220.897C403.606 220.897 404.791 220.571 405.734 219.918C406.702 219.241 407.379 218.346 407.766 217.234H411.32C410.788 219.144 409.724 220.704 408.128 221.913C406.532 223.098 404.55 223.69 402.18 223.69C400.294 223.69 398.601 223.267 397.102 222.421C395.626 221.574 394.466 220.377 393.619 218.83C392.773 217.258 392.35 215.444 392.35 213.389C392.35 211.333 392.761 209.532 393.583 207.984C394.405 206.436 395.554 205.251 397.029 204.429C398.528 203.583 400.245 203.16 402.18 203.16C404.066 203.16 405.734 203.571 407.185 204.393C408.636 205.215 409.749 206.352 410.522 207.803C411.32 209.229 411.719 210.85 411.719 212.663ZM408.31 211.974C408.31 210.717 408.032 209.64 407.476 208.746C406.919 207.827 406.158 207.138 405.19 206.678C404.247 206.195 403.195 205.953 402.035 205.953C400.366 205.953 398.939 206.485 397.754 207.549C396.594 208.613 395.929 210.088 395.759 211.974H408.31ZM458.973 198.082L451.645 223.364H447.946L442.069 203.015L435.976 223.364L432.312 223.4L425.239 198.082H428.757L434.271 219.519L440.365 198.082H444.064L449.868 219.446L455.418 198.082H458.973ZM481.447 212.663C481.447 213.292 481.41 213.957 481.338 214.658H465.45C465.571 216.617 466.236 218.152 467.445 219.265C468.679 220.353 470.166 220.897 471.907 220.897C473.334 220.897 474.519 220.571 475.462 219.918C476.429 219.241 477.106 218.346 477.493 217.234H481.048C480.516 219.144 479.452 220.704 477.856 221.913C476.26 223.098 474.277 223.69 471.907 223.69C470.021 223.69 468.328 223.267 466.829 222.421C465.354 221.574 464.193 220.377 463.347 218.83C462.5 217.258 462.077 215.444 462.077 213.389C462.077 211.333 462.488 209.532 463.31 207.984C464.132 206.436 465.281 205.251 466.756 204.429C468.255 203.583 469.972 203.16 471.907 203.16C473.793 203.16 475.462 203.571 476.913 204.393C478.363 205.215 479.476 206.352 480.25 207.803C481.048 209.229 481.447 210.85 481.447 212.663ZM478.037 211.974C478.037 210.717 477.759 209.64 477.203 208.746C476.647 207.827 475.885 207.138 474.918 206.678C473.974 206.195 472.923 205.953 471.762 205.953C470.093 205.953 468.667 206.485 467.482 207.549C466.321 208.613 465.656 210.088 465.487 211.974H478.037ZM485.296 213.352C485.296 211.321 485.707 209.544 486.529 208.02C487.351 206.473 488.476 205.276 489.902 204.429C491.353 203.583 492.974 203.16 494.763 203.16C496.311 203.16 497.749 203.522 499.079 204.248C500.409 204.949 501.425 205.88 502.126 207.041V196.522H505.463V223.364H502.126V219.628C501.473 220.812 500.506 221.792 499.225 222.566C497.943 223.315 496.444 223.69 494.727 223.69C492.961 223.69 491.353 223.255 489.902 222.384C488.476 221.514 487.351 220.293 486.529 218.721C485.707 217.149 485.296 215.359 485.296 213.352ZM502.126 213.389C502.126 211.889 501.824 210.584 501.22 209.471C500.615 208.359 499.793 207.512 498.753 206.932C497.737 206.328 496.613 206.025 495.38 206.025C494.146 206.025 493.022 206.315 492.006 206.896C490.991 207.476 490.181 208.323 489.576 209.435C488.971 210.547 488.669 211.853 488.669 213.352C488.669 214.876 488.971 216.206 489.576 217.342C490.181 218.455 490.991 219.313 492.006 219.918C493.022 220.498 494.146 220.788 495.38 220.788C496.613 220.788 497.737 220.498 498.753 219.918C499.793 219.313 500.615 218.455 501.22 217.342C501.824 216.206 502.126 214.888 502.126 213.389ZM510.534 213.352C510.534 211.321 510.945 209.544 511.767 208.02C512.589 206.473 513.714 205.276 515.14 204.429C516.591 203.583 518.211 203.16 520.001 203.16C521.549 203.16 522.987 203.522 524.317 204.248C525.647 204.949 526.663 205.88 527.364 207.041V196.522H530.701V223.364H527.364V219.628C526.711 220.812 525.744 221.792 524.462 222.566C523.181 223.315 521.682 223.69 519.965 223.69C518.199 223.69 516.591 223.255 515.14 222.384C513.714 221.514 512.589 220.293 511.767 218.721C510.945 217.149 510.534 215.359 510.534 213.352ZM527.364 213.389C527.364 211.889 527.062 210.584 526.457 209.471C525.853 208.359 525.031 207.512 523.991 206.932C522.975 206.328 521.851 206.025 520.618 206.025C519.384 206.025 518.26 206.315 517.244 206.896C516.229 207.476 515.418 208.323 514.814 209.435C514.209 210.547 513.907 211.853 513.907 213.352C513.907 214.876 514.209 216.206 514.814 217.342C515.418 218.455 516.229 219.313 517.244 219.918C518.26 220.498 519.384 220.788 520.618 220.788C521.851 220.788 522.975 220.498 523.991 219.918C525.031 219.313 525.853 218.455 526.457 217.342C527.062 216.206 527.364 214.888 527.364 213.389ZM538.71 200.258C538.081 200.258 537.549 200.04 537.114 199.605C536.678 199.17 536.461 198.638 536.461 198.009C536.461 197.38 536.678 196.848 537.114 196.413C537.549 195.978 538.081 195.76 538.71 195.76C539.314 195.76 539.822 195.978 540.233 196.413C540.668 196.848 540.886 197.38 540.886 198.009C540.886 198.638 540.668 199.17 540.233 199.605C539.822 200.04 539.314 200.258 538.71 200.258ZM540.306 203.486V223.364H537.005V203.486H540.306ZM556.342 203.123C558.76 203.123 560.719 203.861 562.218 205.336C563.717 206.787 564.467 208.891 564.467 211.648V223.364H561.202V212.119C561.202 210.136 560.706 208.625 559.715 207.585C558.724 206.521 557.369 205.989 555.652 205.989C553.911 205.989 552.521 206.533 551.481 207.621C550.465 208.709 549.958 210.293 549.958 212.373V223.364H546.657V203.486H549.958V206.315C550.611 205.3 551.493 204.514 552.606 203.958C553.742 203.402 554.987 203.123 556.342 203.123ZM578.782 203.16C580.499 203.16 581.998 203.535 583.28 204.284C584.585 205.034 585.553 205.977 586.181 207.113V203.486H589.518V223.799C589.518 225.613 589.132 227.221 588.358 228.623C587.584 230.05 586.472 231.162 585.021 231.96C583.594 232.758 581.925 233.157 580.015 233.157C577.403 233.157 575.227 232.541 573.486 231.307C571.745 230.074 570.717 228.393 570.403 226.265H573.667C574.03 227.475 574.78 228.442 575.916 229.167C577.053 229.917 578.419 230.292 580.015 230.292C581.829 230.292 583.304 229.723 584.44 228.587C585.601 227.45 586.181 225.854 586.181 223.799V219.628C585.528 220.788 584.561 221.756 583.28 222.529C581.998 223.303 580.499 223.69 578.782 223.69C577.016 223.69 575.408 223.255 573.957 222.384C572.531 221.514 571.406 220.293 570.584 218.721C569.762 217.149 569.351 215.359 569.351 213.352C569.351 211.321 569.762 209.544 570.584 208.02C571.406 206.473 572.531 205.276 573.957 204.429C575.408 203.583 577.016 203.16 578.782 203.16ZM586.181 213.389C586.181 211.889 585.879 210.584 585.275 209.471C584.67 208.359 583.848 207.512 582.808 206.932C581.792 206.328 580.668 206.025 579.435 206.025C578.201 206.025 577.077 206.315 576.061 206.896C575.046 207.476 574.236 208.323 573.631 209.435C573.026 210.547 572.724 211.853 572.724 213.352C572.724 214.876 573.026 216.206 573.631 217.342C574.236 218.455 575.046 219.313 576.061 219.918C577.077 220.498 578.201 220.788 579.435 220.788C580.668 220.788 581.792 220.498 582.808 219.918C583.848 219.313 584.67 218.455 585.275 217.342C585.879 216.206 586.181 214.888 586.181 213.389ZM609.519 198.082V223.364H606.218V198.082H609.519ZM625.555 203.123C627.973 203.123 629.931 203.861 631.431 205.336C632.93 206.787 633.68 208.891 633.68 211.648V223.364H630.415V212.119C630.415 210.136 629.919 208.625 628.928 207.585C627.936 206.521 626.582 205.989 624.865 205.989C623.124 205.989 621.734 206.533 620.694 207.621C619.678 208.709 619.171 210.293 619.171 212.373V223.364H615.87V203.486H619.171V206.315C619.823 205.3 620.706 204.514 621.818 203.958C622.955 203.402 624.2 203.123 625.555 203.123ZM647.197 220.317L653.363 203.486H656.881L649.083 223.364H645.238L637.439 203.486H640.994L647.197 220.317ZM662.56 200.258C661.931 200.258 661.399 200.04 660.964 199.605C660.528 199.17 660.311 198.638 660.311 198.009C660.311 197.38 660.528 196.848 660.964 196.413C661.399 195.978 661.931 195.76 662.56 195.76C663.164 195.76 663.672 195.978 664.083 196.413C664.518 196.848 664.736 197.38 664.736 198.009C664.736 198.638 664.518 199.17 664.083 199.605C663.672 200.04 663.164 200.258 662.56 200.258ZM664.156 203.486V223.364H660.855V203.486H664.156ZM674.533 206.207V217.923C674.533 218.89 674.739 219.579 675.15 219.99C675.561 220.377 676.274 220.571 677.29 220.571H679.72V223.364H676.746C674.908 223.364 673.53 222.94 672.611 222.094C671.692 221.248 671.232 219.857 671.232 217.923V206.207H668.657V203.486H671.232V198.481H674.533V203.486H679.72V206.207H674.533ZM683.212 213.352C683.212 211.321 683.623 209.544 684.445 208.02C685.267 206.473 686.392 205.276 687.818 204.429C689.269 203.583 690.877 203.16 692.643 203.16C694.384 203.16 695.895 203.535 697.177 204.284C698.458 205.034 699.414 205.977 700.042 207.113V203.486H703.379V223.364H700.042V219.664C699.389 220.825 698.41 221.792 697.104 222.566C695.823 223.315 694.323 223.69 692.606 223.69C690.841 223.69 689.245 223.255 687.818 222.384C686.392 221.514 685.267 220.293 684.445 218.721C683.623 217.149 683.212 215.359 683.212 213.352ZM700.042 213.389C700.042 211.889 699.74 210.584 699.135 209.471C698.531 208.359 697.709 207.512 696.669 206.932C695.653 206.328 694.529 206.025 693.296 206.025C692.062 206.025 690.938 206.315 689.922 206.896C688.907 207.476 688.096 208.323 687.492 209.435C686.887 210.547 686.585 211.853 686.585 213.352C686.585 214.876 686.887 216.206 687.492 217.342C688.096 218.455 688.907 219.313 689.922 219.918C690.938 220.498 692.062 220.788 693.296 220.788C694.529 220.788 695.653 220.498 696.669 219.918C697.709 219.313 698.531 218.455 699.135 217.342C699.74 216.206 700.042 214.888 700.042 213.389ZM713.709 206.207V217.923C713.709 218.89 713.915 219.579 714.326 219.99C714.737 220.377 715.45 220.571 716.466 220.571H718.896V223.364H715.922C714.084 223.364 712.706 222.94 711.787 222.094C710.868 221.248 710.408 219.857 710.408 217.923V206.207H707.833V203.486H710.408V198.481H713.709V203.486H718.896V206.207H713.709ZM725.326 200.258C724.697 200.258 724.165 200.04 723.73 199.605C723.294 199.17 723.077 198.638 723.077 198.009C723.077 197.38 723.294 196.848 723.73 196.413C724.165 195.978 724.697 195.76 725.326 195.76C725.93 195.76 726.438 195.978 726.849 196.413C727.284 196.848 727.502 197.38 727.502 198.009C727.502 198.638 727.284 199.17 726.849 199.605C726.438 200.04 725.93 200.258 725.326 200.258ZM726.922 203.486V223.364H723.621V203.486H726.922ZM741.942 223.69C740.08 223.69 738.387 223.267 736.864 222.421C735.365 221.574 734.18 220.377 733.309 218.83C732.463 217.258 732.04 215.444 732.04 213.389C732.04 211.357 732.475 209.568 733.345 208.02C734.24 206.448 735.449 205.251 736.973 204.429C738.496 203.583 740.201 203.16 742.087 203.16C743.973 203.16 745.678 203.583 747.202 204.429C748.725 205.251 749.922 206.436 750.793 207.984C751.687 209.532 752.135 211.333 752.135 213.389C752.135 215.444 751.675 217.258 750.756 218.83C749.862 220.377 748.64 221.574 747.093 222.421C745.545 223.267 743.828 223.69 741.942 223.69ZM741.942 220.788C743.127 220.788 744.239 220.51 745.279 219.954C746.319 219.398 747.153 218.564 747.782 217.451C748.435 216.339 748.761 214.985 748.761 213.389C748.761 211.793 748.447 210.438 747.818 209.326C747.19 208.214 746.367 207.392 745.352 206.86C744.336 206.303 743.236 206.025 742.051 206.025C740.842 206.025 739.729 206.303 738.714 206.86C737.722 207.392 736.924 208.214 736.32 209.326C735.715 210.438 735.413 211.793 735.413 213.389C735.413 215.009 735.703 216.375 736.284 217.487C736.888 218.6 737.686 219.434 738.678 219.99C739.669 220.522 740.757 220.788 741.942 220.788ZM766.885 203.123C769.303 203.123 771.262 203.861 772.761 205.336C774.26 206.787 775.01 208.891 775.01 211.648V223.364H771.746V212.119C771.746 210.136 771.25 208.625 770.258 207.585C769.267 206.521 767.913 205.989 766.196 205.989C764.455 205.989 763.064 206.533 762.024 207.621C761.009 208.709 760.501 210.293 760.501 212.373V223.364H757.2V203.486H760.501V206.315C761.154 205.3 762.037 204.514 763.149 203.958C764.285 203.402 765.531 203.123 766.885 203.123Z" fill="#B58200"/>
<path d="M173.826 40.826L135 2L2 135L135 268L268 135L197.25 64.2504" stroke="#B58200" stroke-width="2.5884"/>
<path d="M177.618 81.0751L228.954 132.412L130.255 231.111M151.393 54.8507L135 38.4575L41.0459 132.412L75.0355 166.401" stroke="#B58200" stroke-width="2.5884"/>
<path d="M111.109 178.088C114.205 177.163 121.142 174.016 124.12 168.82C127.098 163.625 128.464 160.47 128.775 159.542M121.33 172.271C123.496 172.583 130.429 172.172 133.402 170.69C136.376 169.208 138.357 168.84 138.976 168.841" stroke="#B58200" stroke-width="2.5884"/>
<path d="M158.572 96.4452C146.69 94.9435 133.802 104.458 128.843 109.404C137.196 112.2 155.945 116.868 164.121 113.166C172.296 109.463 177.445 101.113 178.998 97.4015C177.14 97.7084 170.455 97.947 158.572 96.4452Z" stroke="#B58200" stroke-width="2.5884"/>
<path d="M119.601 77.8229C115.869 91.188 122.967 106.301 126.983 112.187C126.589 111.567 126.04 109.214 126.993 104.759C128.183 99.1897 134.434 94.5558 137.237 81.5608C139.48 71.1648 131.384 61.7452 127.056 58.3349C126.126 59.2621 123.333 64.4578 119.601 77.8229Z" stroke="#B58200" stroke-width="2.5884"/>
<path d="M130.537 230.109C127.217 224.639 123.39 217.247 119.881 208.74M149.307 82.5057C147.448 83.7412 138.521 94.19 117.679 126.102C110.767 136.684 108.428 149.336 108.861 162.3M149.307 82.5057C159.521 82.2101 175.862 81.9846 178.103 72.3314C180.345 62.6783 192.368 51.9241 192.061 50.0668M149.307 82.5057C149.31 80.0298 146.529 70.2368 153.978 61.157C162.348 50.9549 183.397 48.5075 192.061 50.0668M149.307 82.5057C152.408 77.8675 160.655 67.1083 168.834 61.1771C177.013 55.2459 190.203 50.6832 192.061 50.0668M119.881 208.74C124.684 206.27 131.504 201.327 135.224 196.69C140.222 190.46 139.578 181.221 138.964 178.126C128.739 186.468 122.508 184.045 119.907 189.241C117.306 194.437 119.575 206.369 119.881 208.74ZM119.881 208.74C119.093 206.829 120.627 210.753 119.881 208.74ZM119.881 208.74C119.354 207.319 116.534 199.985 116.037 198.521M116.037 198.521C115.724 197.592 110.174 182.729 98.1091 178.999C88.4569 176.014 82.1496 164.121 82.34 167.835C82.6415 173.716 88.6111 190.882 97.1593 194.781C107.366 199.438 113.456 198.518 116.037 198.521ZM116.037 198.521C112.174 187.165 109.271 174.592 108.861 162.3M108.861 162.3C104.668 160.747 95.2163 156.085 87.0113 146.487C81.4491 139.98 83.325 126.055 86.1217 117.702C90.4529 118.946 101.892 128.243 101.874 140.936C101.857 153.935 108.072 160.442 108.861 162.3Z" stroke="#B58200" stroke-width="2.5884"/>
<path d="M114.888 129.812C111.391 126.013 104.764 117.477 104.648 112.157M104.723 94.5154C105.028 97.9203 105.45 106.03 104.7 111.228C104.657 111.525 104.641 111.835 104.648 112.157M104.648 112.157L95.423 105.645M112.08 146.521C118.897 140.649 133.459 128.908 144.602 127.995C155.731 127.083 164.1 128.64 165.028 128.951C162.234 134.828 158.173 145.738 147.36 148.425C143.645 149.349 134.36 149.336 125.078 147.467C122.199 146.887 113.318 146.522 112.08 146.521Z" stroke="#B58200" stroke-width="2.5884"/>
</svg>
