<svg width="96" height="96" viewBox="0 0 96 96" fill="none" xmlns="http://www.w3.org/2000/svg">
<g clip-path="url(#clip0)">
<path d="M12.3775 77.9898C16.7232 80.9909 21.7563 82.543 26.9782 82.543C29.077 82.543 31.208 82.2937 33.3329 81.7882C42.3495 79.6378 48.2533 74.7515 52.6397 68.6147C52.8927 68.4708 53.1075 68.2627 53.2543 67.9945C56.6498 61.9244 59.8554 56.9999 64.252 54.8495C64.1307 55.0673 63.9929 55.2688 63.8904 55.509C62.9972 57.6625 63.1799 60.0811 64.4371 62.6926C66.1652 66.2822 68.8981 67.8762 73.3002 67.8762C75.3863 67.8762 77.9432 67.534 81.5753 66.7434C85.4368 65.9115 88.663 66.2537 93.8175 67.8089C93.9777 67.8568 94.1372 67.8762 94.2974 67.8762C94.3071 67.8762 94.3199 67.8762 94.3296 67.8762C95.2513 67.8538 96 67.156 96 66.2379C96 65.9151 95.9108 65.6172 95.7403 65.3545C94.7392 62.104 88.2661 42.7596 76.0561 42.7596C74.2989 42.7596 72.5071 43.1655 70.722 43.9725C69.3811 44.5787 67.778 46.3007 67.2919 48.4317C67.1287 49.1544 67.1542 49.8527 67.2695 50.5372C64.7775 50.8733 62.5852 51.8078 60.6236 53.2057C61.1836 51.849 61.7339 50.4862 62.2782 49.1258C62.4475 48.7157 62.6077 48.3352 62.7648 47.9323C62.8771 47.8231 63.0142 47.743 63.0913 47.5992C69.0552 36.9377 77.6022 33.058 87.1564 36.6786C87.9949 37.0099 88.9481 36.5778 89.2679 35.7284C89.5877 34.8831 89.1623 33.9366 88.3177 33.615C80.7446 30.7389 73.5641 31.9415 67.6281 36.8388C73.4294 24.5978 77.8673 17.5763 87.7449 16.731C88.6411 16.6558 89.3128 15.8591 89.2394 14.9617C89.1623 14.0612 88.3881 13.3695 87.4664 13.4672C74.2898 14.5903 69.1025 25.7974 63.0937 38.7695C61.7309 41.7117 60.47 44.8566 59.2474 47.9032C58.9853 48.5591 58.7195 49.215 58.4537 49.8709C57.9192 42.7833 54.2525 37.0627 47.6454 33.4305C47.7861 32.845 47.879 32.2479 47.8856 31.629C47.9051 29.4962 47.092 27.4806 45.5975 25.9606C42.6055 22.9158 37.3515 22.8618 34.2989 25.8593C31.16 28.9489 31.1182 34.0173 34.203 37.1531C35.7169 38.6967 37.7423 39.5443 39.9018 39.5443C42.0073 39.5443 43.9908 38.7319 45.495 37.258C45.7638 36.9953 45.9816 36.6998 46.2085 36.4086C54.5983 41.1141 57.2347 49.6203 53.7058 60.5028C49.3061 68.9247 43.3288 76.0215 32.5835 78.5942C26.082 80.136 19.5701 78.9649 14.2524 75.2921C8.29152 71.177 4.28866 64.2914 3.26443 56.3974C3.14611 55.5042 2.30452 54.8707 1.43138 54.9799C0.53215 55.0983 -0.101317 55.9204 0.0139693 56.816C1.14984 65.6385 5.66117 73.3469 12.3775 77.9898ZM66.9079 56.782C67.7749 54.6863 70.2833 53.7676 70.2997 53.7609C70.3185 53.7549 70.3288 53.7355 70.3476 53.7288C73.106 53.9405 76.28 54.986 80.0559 57.0763C80.846 57.5241 81.8441 57.2298 82.2828 56.4459C82.7215 55.6522 82.4363 54.6571 81.6457 54.2124C77.4256 51.8703 73.8032 50.715 70.6352 50.4492C70.4623 50.0433 70.3889 49.624 70.4975 49.1568C70.7378 48.0719 71.6558 47.1532 72.0751 46.9585C73.4349 46.3468 74.7758 46.0386 76.0616 46.0386C84.2245 46.0386 89.6738 58.1964 91.7666 63.86C87.5684 62.8746 84.4835 62.7684 80.9 63.5402C77.499 64.2726 75.163 64.5924 73.3135 64.5924C70.1741 64.5924 68.5716 63.6962 67.4036 61.2649C66.5626 59.5368 66.3988 58.0326 66.9079 56.782ZM43.1947 34.9274C41.3969 36.6968 38.2993 36.6646 36.536 34.8637C34.7157 33.0143 34.7473 30.0162 36.5937 28.202C37.4832 27.3301 38.6512 26.855 39.8896 26.855C41.1663 26.855 42.3598 27.3537 43.2554 28.2675C44.1352 29.1619 44.6152 30.3506 44.6061 31.6127C44.5897 32.8668 44.0933 34.0476 43.1947 34.9274Z" fill="#9F855C"/>
</g>
<defs>
<clipPath id="clip0">
<rect width="96" height="96" fill="white"/>
</clipPath>
</defs>
</svg>
