<svg width="96" height="96" viewBox="0 0 96 96" fill="none" xmlns="http://www.w3.org/2000/svg">
<g clip-path="url(#clip0)">
<path d="M68.9606 39.3097C64.1485 41.5267 61.4482 45.4289 60.9488 50.4132C57.9959 42.3509 56.818 37.1352 60.5761 32.271C63.4423 31.9009 66.098 30.6055 68.1475 28.405C70.5288 25.8589 71.8211 22.4911 71.7929 18.9213L71.7541 14.5538C71.7509 14.1682 71.5578 13.8093 71.2297 13.6061C70.9096 13.3998 70.5007 13.3647 70.147 13.5178C70.0322 13.5684 58.8127 18.3496 51.932 13.7013C51.4034 13.3477 50.6881 13.4881 50.335 14.0087C49.9788 14.5341 50.1234 15.2493 50.6451 15.604C56.9674 19.8694 65.8683 17.4828 69.4717 16.231L69.4972 18.9388C69.5222 21.9173 68.4453 24.7224 66.4687 26.8357C64.7245 28.7039 62.4495 29.786 60.0049 30.0269C59.8837 30.0216 59.7667 30.0354 59.6513 30.0663C59.4662 30.0775 59.2865 30.1264 59.102 30.1264C59.0706 30.1264 59.0461 30.1264 59.0179 30.1264C53.2715 30.1264 48.5679 25.2021 48.5158 19.1111L48.4164 7.68423C48.4026 5.9384 50.2547 4.68925 51.3566 4.10323C53.4949 2.96575 56.4197 2.32655 59.58 2.29996C59.6337 2.29677 59.6811 2.29677 59.7316 2.29677C64.8718 2.29677 68.4554 4.39305 68.473 6.30586C68.4756 6.69672 67.7886 7.58266 65.879 8.47605C64.0225 9.34391 61.7369 9.86027 59.7624 9.87835C59.7007 9.87835 59.6364 9.87835 59.5742 9.87835C55.7496 9.87835 53.0657 8.86478 52.9312 8.32502C52.9312 8.2644 53.0179 8.00649 53.4023 7.63478C54.3335 6.75468 56.3691 5.88363 59.2971 5.97616C61.2626 6.04795 62.8643 6.58717 63.5822 7.40611C64.0002 7.8762 64.7261 7.92779 65.2004 7.50024C65.6769 7.08119 65.7215 6.36276 65.3009 5.88628C64.1427 4.57119 62.0395 3.79054 59.3811 3.67515C56.2431 3.53476 53.4162 4.42815 51.7783 6.007C51.021 6.74139 50.6275 7.55235 50.636 8.33885C50.6445 9.32477 51.2598 10.6622 54.1458 11.4891C55.722 11.939 57.7831 12.1751 59.788 12.1693C62.0735 12.1528 64.7154 11.5465 66.8548 10.5553C69.4009 9.3721 70.7947 7.85919 70.7809 6.28299C70.7474 2.70465 65.8704 -0.0377374 59.5694 1.89687e-05C56.0442 0.0308622 52.7461 0.767908 50.2914 2.07183C47.5895 3.50764 46.1074 5.50447 46.1313 7.70284L46.2281 19.1302C46.2855 26.0333 51.3624 31.6265 57.7752 32.287C54.0453 38.5694 56.6786 45.6086 59.7103 53.6427C60.4617 55.6337 61.3392 57.6529 62.2309 59.6832C62.3852 60.0305 62.5367 60.3841 62.6909 60.7319C60.0129 58.5447 56.8999 57.5577 53.5348 57.7763C53.8373 57.2493 54.1096 56.6936 54.2723 56.04C54.7605 54.0602 54.2697 51.9655 52.8099 49.8538C51.1763 47.4661 49.1183 46.3584 46.3318 46.3584C44.1063 46.3584 41.3235 47.0577 37.0315 48.7014C33.6116 50.0107 30.5045 50.1824 25.5158 49.4757C25.0878 49.4252 24.6831 49.5906 24.4331 49.9272C24.1837 50.2638 24.1375 50.71 24.3124 51.0939C24.6549 51.8341 32.8305 69.2292 43.7069 69.2292C45.8006 69.2292 47.8543 68.5788 49.8118 67.3057C50.8493 66.6384 52.0203 64.9106 52.1495 63.0377C52.2197 62.0736 51.9841 61.1844 51.5268 60.3958C57.2987 59.0132 62.2448 61.6971 65.5934 68.1135C67.5168 74.0503 68.0949 80.1381 64.3512 86.3472C62.0847 90.1106 58.5404 92.6206 54.3728 93.4198C49.707 94.3175 44.6296 93.0327 40.4594 89.875C39.9494 89.4878 39.2341 89.5889 38.8513 90.0994C38.47 90.604 38.5662 91.3251 39.0757 91.7117C42.7774 94.511 47.1337 95.9995 51.4146 95.9995C52.5552 95.9995 53.6916 95.8958 54.811 95.6825C59.6231 94.7599 63.7146 91.8628 66.3198 87.5389C70.3246 80.8985 69.8763 74.3981 68.0337 68.2677C68.0619 68.0492 68.0475 67.8306 67.9438 67.6142C67.8737 67.4626 67.7838 67.3451 67.7083 67.1994C66.7521 64.2858 65.5184 61.4726 64.332 58.7611C64.2283 58.5229 64.1299 58.2873 64.0262 58.0491C64.0321 57.9278 64.0294 57.8076 63.9927 57.6843C61.7412 49.9809 63.8497 44.1983 69.9354 41.3969C70.5102 41.1236 70.7628 40.4488 70.4964 39.8739C70.2225 39.2969 69.5387 39.0363 68.9606 39.3097ZM48.5424 65.3881C46.9604 66.4177 45.3257 66.942 43.6894 66.942C36.1977 66.942 29.7126 56.3952 27.342 52.0118C31.5483 52.4191 34.5922 52.0878 37.834 50.8567C41.8484 49.3167 44.3844 48.6568 46.3143 48.6568C48.3281 48.6568 49.7006 49.4039 50.9009 51.154C51.9681 52.7079 52.3484 54.1628 52.0309 55.4864C51.732 56.7122 50.8939 57.6289 50.2 58.2182C44.1005 61.454 40.437 58.148 40.2674 57.9767C39.8101 57.5449 39.0868 57.5561 38.6481 58.0102C38.2052 58.4644 38.2174 59.194 38.6731 59.6284C38.8103 59.7662 41.1225 61.9475 45.0598 61.9475C46.2855 61.9475 47.682 61.7119 49.2034 61.1621C49.6464 61.6636 49.899 62.2219 49.8469 62.8978C49.7607 64.0954 48.945 65.1249 48.5424 65.3881Z" fill="#9F855C"/>
</g>
<defs>
<clipPath id="clip0">
<rect width="96" height="96" fill="white"/>
</clipPath>
</defs>
</svg>
