<svg width="96" height="96" viewBox="0 0 96 96" fill="none" xmlns="http://www.w3.org/2000/svg">
<g clip-path="url(#clip0)">
<path d="M1.34801 66.4647C3.94507 74.8531 9.28879 82.0387 16.6996 86.9854C23.086 91.2452 30.4279 93.4469 37.9315 93.4469C40.4591 93.4469 43.0044 93.2027 45.5319 92.6917C71.1188 87.5849 87.8129 62.7165 82.9402 37.1329C86.8241 36.7264 92.5943 35.6787 93.0348 26.9655C93.0787 26.1513 92.9803 25.3383 92.8724 24.4646C92.5671 22.1011 92.2184 19.4229 95.7369 13.8756C96.0617 13.3612 96.0856 12.7145 95.8081 12.1722C95.5334 11.6273 94.9918 11.2647 94.3856 11.2224C94.3889 11.2224 89.6213 10.7925 84.8226 14.0147C84.3927 12.8212 83.8611 11.8119 83.3561 10.8787C82.2422 8.76048 81.5043 7.35907 82.2389 4.75812C82.4119 4.14194 82.2317 3.47961 81.7645 3.03583C81.3041 2.59038 80.6468 2.43856 80.0239 2.63987C79.8037 2.71272 74.4906 4.5023 72.0453 9.34273C71.0771 11.2713 70.6878 13.379 70.9008 15.643C69.3226 15.1469 67.6637 14.8983 65.947 14.8983C63.2854 14.8983 61.4296 15.5245 61.3584 15.5501C60.7756 15.7481 60.3496 16.2324 60.2206 16.8319C60.0983 17.4298 60.2918 18.0493 60.7389 18.4625C65.5643 22.9153 65.9169 25.5924 66.235 27.9526C66.3535 28.8262 66.4719 29.632 66.7294 30.4112C68.3583 35.4752 71.3618 37.9337 75.9098 37.9337C77.1794 37.9337 78.3917 37.7458 79.4856 37.5734C84.1386 61.3651 68.6324 84.5512 44.8374 89.2988C35.6876 91.1179 26.3738 89.2754 18.6054 84.1008C16.7685 82.8712 15.0652 81.4698 13.5192 79.9594C16.9576 81.6561 20.7164 82.5637 24.5736 82.5637C26.2514 82.5637 27.9615 82.398 29.6426 82.056C43.4298 79.3026 53.2519 67.9384 54.4031 54.9047C55.9708 54.2001 60.8029 51.6976 61.5781 47.1603C62.1704 43.7151 60.3118 40.1254 56.0453 36.4951L55.656 36.1586C53.8642 34.6532 50.5392 31.8582 49.0633 27.625C48.8258 26.9633 48.2152 26.5039 47.5106 26.47C46.7065 26.4238 46.1442 26.8303 45.8495 27.466C45.5514 28.0922 38.6928 42.931 43.5366 50.631C45.0776 53.0757 47.5901 54.4609 50.9185 54.9047C49.7807 66.3168 41.0886 76.2318 28.9625 78.6598C23.3107 79.7903 17.586 78.7109 12.8251 75.6289C8.92397 73.1097 6.09168 69.4794 4.58294 65.2468C4.24259 64.1529 3.95786 63.0218 3.73653 61.8806C3.73653 61.8639 3.72318 61.85 3.71595 61.8367C2.31899 53.188 8.18601 44.8307 17.1 43.0533C20.554 42.3727 24.067 43.0211 26.9727 44.9035C29.8712 46.7765 31.8204 49.64 32.4922 52.9683C33.5571 58.2876 29.9474 63.5134 24.4518 64.6134C23.512 64.7997 22.9058 65.7073 23.0855 66.6521C23.2801 67.5903 24.2027 68.2026 25.1242 68.0129C32.5033 66.5403 37.3337 59.4832 35.8872 52.2876C35.0492 48.0345 32.5416 44.3802 28.8591 41.9945C25.1865 39.616 20.7792 38.7796 16.4315 39.6494C5.44047 41.8449 -1.75901 52.3544 0.374253 63.0718C0.613383 64.243 0.960399 65.3641 1.34801 66.4647ZM79.2086 34.1121C78.1287 34.2884 77.0148 34.473 75.9303 34.473C73.8343 34.473 71.4942 33.8652 70.045 29.3545C69.852 28.7651 69.7808 28.1506 69.6896 27.4955C69.3915 25.2754 69.0023 22.3703 65.5104 18.3763C67.8845 18.2901 70.3497 18.8729 72.439 20.0863C73.0725 20.4456 73.841 20.3877 74.4027 19.934C74.9582 19.4785 75.1813 18.7266 74.951 18.0426C73.0041 12.1556 76.0282 8.86058 78.4968 7.23505C78.6319 9.35664 79.4989 11.0005 80.3014 12.5059C81.0833 13.9757 81.819 15.3627 82.086 17.3046C82.1705 17.9531 82.6176 18.4981 83.2371 18.7077C83.86 18.9246 84.5412 18.7706 85.0084 18.3134C87.0265 16.3609 89.2821 15.4517 91.114 15.034C88.7777 19.7916 89.1564 22.6973 89.4412 24.9151C89.5224 25.5718 89.6141 26.1814 89.5802 26.8014C89.2582 33.0405 85.7096 33.3875 81.947 33.7584C81.4631 33.8074 81.0088 33.848 80.5756 33.9075C80.1429 33.9597 79.6858 34.0359 79.2086 34.1121ZM46.4851 48.7819C44.0065 44.8607 45.8133 37.3887 47.5673 32.4516C49.4737 35.4891 51.9251 37.5511 53.4216 38.8141L53.7942 39.1327C56.0359 41.0441 58.6162 43.8836 58.1624 46.5641C57.8304 48.4805 56.0158 50.0148 54.4648 50.963C54.3903 49.5199 54.2546 48.0706 53.9638 46.6164C53.7708 45.6732 52.846 45.0554 51.9184 45.2533C50.9802 45.4396 50.3746 46.3522 50.5537 47.2915C50.8312 48.6935 50.9596 50.0888 51.0108 51.4768C48.9181 51.1215 47.4116 50.245 46.4851 48.7819Z" fill="#9F855C"/>
</g>
<defs>
<clipPath id="clip0">
<rect width="96" height="96" fill="white"/>
</clipPath>
</defs>
</svg>
