<svg width="108" height="108" viewBox="0 0 108 108" fill="none" xmlns="http://www.w3.org/2000/svg">
<rect y="53.7401" width="76" height="76" transform="rotate(-45 0 53.7401)" fill="white"/>
<path d="M66.8447 22.8447L54 10L10 54L54 98L98 54L74.5941 30.5941" stroke="#B58200" stroke-width="0.856313"/>
<path d="M68.0991 36.1602L85.0826 53.1437L52.4301 85.7962M59.4233 27.4844L54 22.0611L22.9174 53.1437L34.1621 64.3884" stroke="#B58200" stroke-width="0.856313"/>
<path d="M46.0961 68.2545C47.1205 67.9487 49.4154 66.9075 50.4007 65.1887C51.3859 63.4699 51.8379 62.4261 51.9407 62.1191M49.4776 66.33C50.1942 66.4334 52.4879 66.2973 53.4715 65.8072C54.4551 65.317 55.1106 65.1951 55.3153 65.1953" stroke="#B58200" stroke-width="0.856313"/>
<path d="M61.7984 41.2451C57.8673 40.7482 53.6037 43.896 51.9632 45.532C54.7265 46.4573 60.9291 48.0016 63.6339 46.7766C66.3386 45.5516 68.042 42.7894 68.5557 41.5614C67.9412 41.663 65.7295 41.7419 61.7984 41.2451Z" stroke="#B58200" stroke-width="0.856313"/>
<path d="M48.9057 35.0842C47.671 39.5057 50.0192 44.5055 51.3476 46.4527C51.2174 46.2477 51.0358 45.4693 51.3509 43.9953C51.7449 42.1529 53.8129 40.6198 54.7402 36.3207C55.4821 32.8815 52.8037 29.7652 51.3718 28.637C51.0642 28.9437 50.1404 30.6626 48.9057 35.0842Z" stroke="#B58200" stroke-width="0.856313"/>
<path d="M52.5234 85.4647C51.4253 83.6551 50.159 81.2095 48.9982 78.395M58.7331 36.6334C58.1182 37.0422 55.1647 40.4989 48.2698 51.0561C45.9832 54.5572 45.2092 58.7428 45.3524 63.0317M58.7331 36.6334C62.1121 36.5356 67.5182 36.461 68.2597 33.2675C69.0013 30.074 72.9788 26.5162 72.8772 25.9017M58.7331 36.6334C58.7342 35.8143 57.8141 32.5745 60.2785 29.5707C63.0475 26.1956 70.011 25.3859 72.8772 25.9017M58.7331 36.6334C59.7591 35.099 62.4875 31.5396 65.1932 29.5774C67.8989 27.6151 72.2626 26.1057 72.8772 25.9017M48.9982 78.395C50.5871 77.578 52.8435 75.9429 54.0742 74.4087C55.7277 72.3477 55.5146 69.2912 55.3113 68.267C51.9287 71.027 49.8674 70.2255 49.007 71.9445C48.1465 73.6635 48.8969 77.6106 48.9982 78.395ZM48.9982 78.395C48.7376 77.7631 49.2451 79.0611 48.9982 78.395ZM48.9982 78.395C48.824 77.9251 47.8911 75.4988 47.7264 75.0144M47.7264 75.0144C47.6229 74.7071 45.787 69.7899 41.7955 68.5559C38.6023 67.5686 36.5157 63.634 36.5787 64.8628C36.6784 66.8083 38.6533 72.4872 41.4813 73.7773C44.858 75.3177 46.8728 75.0133 47.7264 75.0144ZM47.7264 75.0144C46.4487 71.2575 45.4882 67.0982 45.3524 63.0317M45.3524 63.0317C43.9652 62.5178 40.8385 60.9754 38.1241 57.8C36.2839 55.6473 36.9045 51.0407 37.8297 48.2774C39.2626 48.6889 43.0469 51.7646 43.0412 55.9637C43.0353 60.264 45.0916 62.417 45.3524 63.0317Z" stroke="#B58200" stroke-width="0.856313"/>
<path d="M47.3465 52.2835C46.1896 51.0268 43.997 48.2027 43.9586 46.4427M43.9835 40.6065C44.0844 41.7329 44.2241 44.4157 43.976 46.1355C43.9619 46.2336 43.9563 46.3362 43.9586 46.4427M43.9586 46.4427L40.9069 44.2884M46.4175 57.8112C48.6727 55.8689 53.4903 51.9846 57.1767 51.6825C60.8585 51.3807 63.6269 51.896 63.934 51.9988C63.0098 53.943 61.6662 57.5523 58.089 58.4414C56.8599 58.7469 53.7883 58.7427 50.7174 58.1242C49.7652 57.9324 46.8271 57.8118 46.4175 57.8112Z" stroke="#B58200" stroke-width="0.856313"/>
</svg>
