<svg width="24" height="24" viewBox="0 0 24 24" fill="none" xmlns="http://www.w3.org/2000/svg">
<path d="M2 11.083C1.99997 10.4399 2.15502 9.80619 2.452 9.23573C2.74898 8.66527 3.17914 8.17483 3.706 7.80599L9.706 3.60599C10.3784 3.13529 11.1792 2.88281 12 2.88281C12.8208 2.88281 13.6216 3.13529 14.294 3.60599L20.294 7.80599C20.8209 8.17483 21.251 8.66527 21.548 9.23573C21.845 9.80619 22 10.4399 22 11.083V19C22 19.5304 21.7893 20.0391 21.4142 20.4142C21.0391 20.7893 20.5304 21 20 21H4C3.46957 21 2.96086 20.7893 2.58579 20.4142C2.21071 20.0391 2 19.5304 2 19V11.083Z" stroke="black" stroke-width="2" stroke-linecap="round" stroke-linejoin="round"/>
<path d="M2 9L9.501 15.001C10.2103 15.5685 11.0916 15.8777 12 15.8777C12.9084 15.8777 13.7897 15.5685 14.499 15.001L22 9" stroke="black" stroke-width="2" stroke-linejoin="round"/>
</svg>
