<svg width="200" height="200" viewBox="0 0 200 200" fill="none" xmlns="http://www.w3.org/2000/svg">
<path d="M100 0C44.7581 0 0 44.7581 0 100C0 155.242 44.7581 200 100 200C155.242 200 200 155.242 200 100C200 44.7581 155.242 0 100 0ZM93.5484 132.258C93.5484 135.806 90.6452 138.71 87.0968 138.71H67.7419C64.1935 138.71 61.2903 135.806 61.2903 132.258V67.7419C61.2903 64.1935 64.1935 61.2903 67.7419 61.2903H87.0968C90.6452 61.2903 93.5484 64.1935 93.5484 67.7419V132.258ZM138.71 132.258C138.71 135.806 135.806 138.71 132.258 138.71H112.903C109.355 138.71 106.452 135.806 106.452 132.258V67.7419C106.452 64.1935 109.355 61.2903 112.903 61.2903H132.258C135.806 61.2903 138.71 64.1935 138.71 67.7419V132.258Z" fill="#B58200"/>
</svg>
