<svg width="200" height="200" viewBox="0 0 200 200" fill="none" xmlns="http://www.w3.org/2000/svg">
<path d="M200 100C200 126.522 189.464 151.957 170.711 170.711C151.957 189.464 126.522 200 100 200C73.4784 200 48.043 189.464 29.2893 170.711C10.5357 151.957 0 126.522 0 100C0 73.4784 10.5357 48.043 29.2893 29.2893C48.043 10.5357 73.4784 0 100 0C126.522 0 151.957 10.5357 170.711 29.2893C189.464 48.043 200 73.4784 200 100V100ZM84.875 63.6625C83.9405 62.9971 82.8408 62.6018 81.6965 62.5198C80.5522 62.4379 79.4074 62.6724 78.3876 63.1978C77.3678 63.7233 76.5122 64.5192 75.9147 65.4986C75.3172 66.4779 75.0007 67.6028 75 68.75V131.25C75.0007 132.397 75.3172 133.522 75.9147 134.501C76.5122 135.481 77.3678 136.277 78.3876 136.802C79.4074 137.328 80.5522 137.562 81.6965 137.48C82.8408 137.398 83.9405 137.003 84.875 136.337L128.625 105.087C129.435 104.509 130.096 103.746 130.551 102.861C131.007 101.976 131.245 100.995 131.245 100C131.245 99.0047 131.007 98.0237 130.551 97.1388C130.096 96.2539 129.435 95.4906 128.625 94.9125L84.875 63.6625V63.6625Z" fill="#B58200"/>
</svg>
